<mxfile host="Electron" modified="2024-05-14T06:29:51.992Z" agent="Mozilla/5.0 (Windows NT 10.0; Win64; x64) AppleWebKit/537.36 (KHTML, like Gecko) draw.io/24.2.5 Chrome/120.0.6099.109 Electron/28.1.0 Safari/537.36" etag="LNiLBJMpnp9KVi_mow2D" version="24.2.5" type="device">
  <diagram name="Page-1" id="QddTtM6oGtnDxqBSEBFD">
    <mxGraphModel dx="1219" dy="713" grid="1" gridSize="10" guides="1" tooltips="1" connect="1" arrows="1" fold="1" page="1" pageScale="1" pageWidth="850" pageHeight="1100" math="0" shadow="0">
      <root>
        <mxCell id="0" />
        <mxCell id="1" parent="0" />
        <mxCell id="UwcTE8XrF46-IyepMmQ9-6" style="edgeStyle=orthogonalEdgeStyle;rounded=0;orthogonalLoop=1;jettySize=auto;html=1;entryX=0;entryY=0.5;entryDx=0;entryDy=0;" edge="1" parent="1" source="UwcTE8XrF46-IyepMmQ9-1" target="UwcTE8XrF46-IyepMmQ9-4">
          <mxGeometry relative="1" as="geometry">
            <Array as="points">
              <mxPoint x="240" y="360" />
              <mxPoint x="240" y="155" />
            </Array>
          </mxGeometry>
        </mxCell>
        <mxCell id="UwcTE8XrF46-IyepMmQ9-17" style="edgeStyle=orthogonalEdgeStyle;rounded=0;orthogonalLoop=1;jettySize=auto;html=1;entryX=0;entryY=0.5;entryDx=0;entryDy=0;" edge="1" parent="1" source="UwcTE8XrF46-IyepMmQ9-1" target="UwcTE8XrF46-IyepMmQ9-16">
          <mxGeometry relative="1" as="geometry" />
        </mxCell>
        <mxCell id="UwcTE8XrF46-IyepMmQ9-24" style="edgeStyle=orthogonalEdgeStyle;rounded=0;orthogonalLoop=1;jettySize=auto;html=1;entryX=0;entryY=0.5;entryDx=0;entryDy=0;" edge="1" parent="1" source="UwcTE8XrF46-IyepMmQ9-1" target="UwcTE8XrF46-IyepMmQ9-23">
          <mxGeometry relative="1" as="geometry">
            <Array as="points">
              <mxPoint x="240" y="360" />
              <mxPoint x="240" y="515" />
            </Array>
          </mxGeometry>
        </mxCell>
        <mxCell id="UwcTE8XrF46-IyepMmQ9-1" value="Admin" style="shape=umlActor;verticalLabelPosition=bottom;verticalAlign=top;html=1;outlineConnect=0;" vertex="1" parent="1">
          <mxGeometry x="110" y="330" width="30" height="60" as="geometry" />
        </mxCell>
        <mxCell id="UwcTE8XrF46-IyepMmQ9-2" value="" style="endArrow=none;html=1;rounded=0;" edge="1" parent="1">
          <mxGeometry width="50" height="50" relative="1" as="geometry">
            <mxPoint x="200" y="600" as="sourcePoint" />
            <mxPoint x="200" y="40" as="targetPoint" />
          </mxGeometry>
        </mxCell>
        <mxCell id="UwcTE8XrF46-IyepMmQ9-7" style="edgeStyle=orthogonalEdgeStyle;rounded=0;orthogonalLoop=1;jettySize=auto;html=1;entryX=0.5;entryY=0;entryDx=0;entryDy=0;" edge="1" parent="1" source="UwcTE8XrF46-IyepMmQ9-4" target="UwcTE8XrF46-IyepMmQ9-5">
          <mxGeometry relative="1" as="geometry" />
        </mxCell>
        <mxCell id="UwcTE8XrF46-IyepMmQ9-8" style="edgeStyle=orthogonalEdgeStyle;rounded=0;orthogonalLoop=1;jettySize=auto;html=1;" edge="1" parent="1" source="UwcTE8XrF46-IyepMmQ9-4">
          <mxGeometry relative="1" as="geometry">
            <mxPoint x="409.9999999999998" y="155" as="targetPoint" />
          </mxGeometry>
        </mxCell>
        <mxCell id="UwcTE8XrF46-IyepMmQ9-15" style="edgeStyle=orthogonalEdgeStyle;rounded=0;orthogonalLoop=1;jettySize=auto;html=1;entryX=0;entryY=0.5;entryDx=0;entryDy=0;" edge="1" parent="1" source="UwcTE8XrF46-IyepMmQ9-4" target="UwcTE8XrF46-IyepMmQ9-14">
          <mxGeometry relative="1" as="geometry" />
        </mxCell>
        <mxCell id="UwcTE8XrF46-IyepMmQ9-4" value="Login" style="ellipse;whiteSpace=wrap;html=1;" vertex="1" parent="1">
          <mxGeometry x="270" y="130" width="95" height="50" as="geometry" />
        </mxCell>
        <mxCell id="UwcTE8XrF46-IyepMmQ9-5" value="Logout" style="ellipse;whiteSpace=wrap;html=1;" vertex="1" parent="1">
          <mxGeometry x="360" y="230" width="95" height="50" as="geometry" />
        </mxCell>
        <mxCell id="UwcTE8XrF46-IyepMmQ9-10" style="edgeStyle=orthogonalEdgeStyle;rounded=0;orthogonalLoop=1;jettySize=auto;html=1;" edge="1" parent="1" source="UwcTE8XrF46-IyepMmQ9-9">
          <mxGeometry relative="1" as="geometry">
            <mxPoint x="569.9999999999998" y="155" as="targetPoint" />
          </mxGeometry>
        </mxCell>
        <mxCell id="UwcTE8XrF46-IyepMmQ9-9" value="View Profile" style="ellipse;whiteSpace=wrap;html=1;" vertex="1" parent="1">
          <mxGeometry x="410" y="130" width="100" height="50" as="geometry" />
        </mxCell>
        <mxCell id="UwcTE8XrF46-IyepMmQ9-12" value="" style="edgeStyle=orthogonalEdgeStyle;rounded=0;orthogonalLoop=1;jettySize=auto;html=1;" edge="1" parent="1" source="UwcTE8XrF46-IyepMmQ9-11" target="UwcTE8XrF46-IyepMmQ9-9">
          <mxGeometry relative="1" as="geometry" />
        </mxCell>
        <mxCell id="UwcTE8XrF46-IyepMmQ9-11" value="Edit Profile" style="ellipse;whiteSpace=wrap;html=1;" vertex="1" parent="1">
          <mxGeometry x="570" y="130" width="100" height="50" as="geometry" />
        </mxCell>
        <mxCell id="UwcTE8XrF46-IyepMmQ9-14" value="Forget Password" style="ellipse;whiteSpace=wrap;html=1;" vertex="1" parent="1">
          <mxGeometry x="365" y="50" width="115" height="50" as="geometry" />
        </mxCell>
        <mxCell id="UwcTE8XrF46-IyepMmQ9-18" style="edgeStyle=orthogonalEdgeStyle;rounded=0;orthogonalLoop=1;jettySize=auto;html=1;" edge="1" parent="1" source="UwcTE8XrF46-IyepMmQ9-16">
          <mxGeometry relative="1" as="geometry">
            <mxPoint x="459.9999999999998" y="360" as="targetPoint" />
          </mxGeometry>
        </mxCell>
        <mxCell id="UwcTE8XrF46-IyepMmQ9-16" value="View User List" style="ellipse;whiteSpace=wrap;html=1;" vertex="1" parent="1">
          <mxGeometry x="290" y="335" width="100" height="50" as="geometry" />
        </mxCell>
        <mxCell id="UwcTE8XrF46-IyepMmQ9-22" style="edgeStyle=orthogonalEdgeStyle;rounded=0;orthogonalLoop=1;jettySize=auto;html=1;entryX=0;entryY=0.5;entryDx=0;entryDy=0;" edge="1" parent="1" source="UwcTE8XrF46-IyepMmQ9-20" target="UwcTE8XrF46-IyepMmQ9-21">
          <mxGeometry relative="1" as="geometry" />
        </mxCell>
        <mxCell id="UwcTE8XrF46-IyepMmQ9-20" value="View User&lt;div&gt;Details&lt;/div&gt;" style="ellipse;whiteSpace=wrap;html=1;" vertex="1" parent="1">
          <mxGeometry x="460" y="335" width="100" height="50" as="geometry" />
        </mxCell>
        <mxCell id="UwcTE8XrF46-IyepMmQ9-21" value="Edit User Role/Status" style="ellipse;whiteSpace=wrap;html=1;" vertex="1" parent="1">
          <mxGeometry x="600" y="335" width="100" height="50" as="geometry" />
        </mxCell>
        <mxCell id="UwcTE8XrF46-IyepMmQ9-26" style="edgeStyle=orthogonalEdgeStyle;rounded=0;orthogonalLoop=1;jettySize=auto;html=1;entryX=0;entryY=0.5;entryDx=0;entryDy=0;" edge="1" parent="1" source="UwcTE8XrF46-IyepMmQ9-23" target="UwcTE8XrF46-IyepMmQ9-25">
          <mxGeometry relative="1" as="geometry" />
        </mxCell>
        <mxCell id="UwcTE8XrF46-IyepMmQ9-23" value="View Setting List" style="ellipse;whiteSpace=wrap;html=1;" vertex="1" parent="1">
          <mxGeometry x="290" y="490" width="110" height="50" as="geometry" />
        </mxCell>
        <mxCell id="UwcTE8XrF46-IyepMmQ9-28" style="edgeStyle=orthogonalEdgeStyle;rounded=0;orthogonalLoop=1;jettySize=auto;html=1;entryX=0;entryY=0.5;entryDx=0;entryDy=0;" edge="1" parent="1" source="UwcTE8XrF46-IyepMmQ9-25" target="UwcTE8XrF46-IyepMmQ9-27">
          <mxGeometry relative="1" as="geometry" />
        </mxCell>
        <mxCell id="UwcTE8XrF46-IyepMmQ9-25" value="View Setting Details" style="ellipse;whiteSpace=wrap;html=1;" vertex="1" parent="1">
          <mxGeometry x="455" y="490" width="100" height="50" as="geometry" />
        </mxCell>
        <mxCell id="UwcTE8XrF46-IyepMmQ9-27" value="Edit Settings" style="ellipse;whiteSpace=wrap;html=1;" vertex="1" parent="1">
          <mxGeometry x="600" y="490" width="100" height="50" as="geometry" />
        </mxCell>
      </root>
    </mxGraphModel>
  </diagram>
</mxfile>
